<?xml version="1.0" encoding="UTF-8" standalone="no"?>
<!-- Created with Inkscape (http://www.inkscape.org/) -->

<svg
   width="7.6455278mm"
   height="14.122653mm"
   viewBox="0 0 7.6455278 14.122653"
   version="1.1"
   id="svg1"
   xmlns="http://www.w3.org/2000/svg"
   xmlns:svg="http://www.w3.org/2000/svg">
  <defs
     id="defs1" />
  <g
     id="layer1"
     transform="translate(-220.47387,53.28357)">
    <path
       d="m 222.83601,-53.28357 c -1.4732,0 -2.36213,0.889211 -2.36213,2.438611 v 2.819466 l 2.76882,-1.422652 c 0,0 0.008,-0.565857 0,-0.848527 -0.009,-0.3237 0.009,-0.388411 0.36587,-0.395841 0.58067,-0.0121 1.74202,0 1.74202,0 v 2.133203 l -4.17184,2.086177 c -0.46864,0.26296 -0.70355,0.613406 -0.70487,1.051616 v 3.84731 c 0,1.7018 0.60956,2.41329 2.18436,2.41329 h 0.88936 1.75234 2.81947 v -11.684042 c 0,-1.5494 -0.88893,-2.438611 -2.36213,-2.438611 z m 2.51458,7.467761 v 4.013191 h -2.10789 v -2.971911 z"
       style="font-weight:bold;font-size:25.4px;line-height:1;font-family:Horizon;-inkscape-font-specification:'Horizon Bold';letter-spacing:-0.640292px;word-spacing:0px;stroke-width:10;stroke-linecap:round;stroke-dashoffset:1.134;paint-order:markers fill stroke"
       id="path1-50" />
  </g>
</svg>
