<?xml version="1.0" encoding="UTF-8" standalone="no"?>
<!-- Created with Inkscape (http://www.inkscape.org/) -->

<svg
   width="210mm"
   height="297mm"
   viewBox="0 0 210 297"
   version="1.1"
   id="svg1"
   inkscape:version="1.4.2 (ebf0e940, 2025-05-08)"
   sodipodi:docname="cocktail font.svg"
   xmlns:inkscape="http://www.inkscape.org/namespaces/inkscape"
   xmlns:sodipodi="http://sodipodi.sourceforge.net/DTD/sodipodi-0.dtd"
   xmlns="http://www.w3.org/2000/svg"
   xmlns:svg="http://www.w3.org/2000/svg">
  <sodipodi:namedview
     id="namedview1"
     pagecolor="#ffffff"
     bordercolor="#000000"
     borderopacity="0.25"
     inkscape:showpageshadow="2"
     inkscape:pageopacity="0.0"
     inkscape:pagecheckerboard="0"
     inkscape:deskcolor="#d1d1d1"
     inkscape:document-units="mm"
     showgrid="true"
     inkscape:zoom="1.0125083"
     inkscape:cx="1906.1573"
     inkscape:cy="-267.15831"
     inkscape:window-width="1552"
     inkscape:window-height="932"
     inkscape:window-x="234"
     inkscape:window-y="25"
     inkscape:window-maximized="0"
     inkscape:current-layer="layer1">
    <inkscape:grid
       id="grid2"
       units="mm"
       originx="0"
       originy="0"
       spacingx="0.99999998"
       spacingy="1"
       empcolor="#0099e5"
       empopacity="0.30196078"
       color="#0099e5"
       opacity="0.14901961"
       empspacing="5"
       enabled="true"
       visible="true" />
  </sodipodi:namedview>
  <defs
     id="defs1" />
  <g
     inkscape:label="Layer 1"
     inkscape:groupmode="layer"
     id="layer1">
    <path
       d="m 368.76718,-43.46041 -2.68893,-1.8336 -16.50701,7.965644 c -1.39542,0.673379 -1.96927,1.936362 -1.32945,3.263367 l 0.86203,1.787844 2.42563,-1.169536 -0.6634,-1.375889 z"
       style="font-weight:bold;font-size:25.4px;line-height:1;font-family:Horizon;-inkscape-font-specification:'Horizon Bold';letter-spacing:-0.640292px;word-spacing:0px;fill:#ffff00;stroke-width:10;stroke-linecap:round;stroke-dashoffset:1.134;paint-order:markers fill stroke"
       id="path1-06"
       inkscape:transform-center-x="4.959754"
       inkscape:transform-center-y="5.1480543"
       sodipodi:nodetypes="ccsscccc" />
    <path
       d="m 486.66425,-52.00872 c -1.58371,0 -2.5393,0.955362 -2.5393,2.620982 v 3.030948 l 2.97596,-1.528805 c 0,0 0.008,-0.608304 0,-0.912178 -0.0102,-0.34798 0.009,-0.418103 0.3933,-0.426091 0.62422,-0.01301 1.87323,0 1.87323,0 v 2.29377 l -4.48477,2.242107 c -0.50378,0.282684 -0.75632,0.65998 -0.75774,1.13106 v 2.954076 c 0,1.829451 0.65527,2.593751 2.34821,2.593751 h 0.95552 1.88435 3.03097 v -11.378638 c 0,-1.66562 -0.95618,-2.620982 -2.53988,-2.620982 z m 2.70321,8.02739 v 3.132398 h -2.26655 v -2.012454 z"
       style="font-weight:bold;font-size:25.4px;line-height:1;font-family:Horizon;-inkscape-font-specification:'Horizon Bold';letter-spacing:-0.640292px;word-spacing:0px;fill:#800080;stroke-width:10.7501;stroke-linecap:round;stroke-dashoffset:1.134;paint-order:markers fill stroke"
       id="path1-68"
       sodipodi:nodetypes="sscccsccccsscccsssccccc" />
    <path
       d="m 316.18996,-43.453136 c -1.4732,0 -2.36213,0.889211 -2.36213,2.438611 v 9.270751 c 0,1.5494 0.88893,2.413289 2.36213,2.413289 h 2.92127 c 1.4732,0 2.36213,-0.863889 2.36213,-2.413289 v -3.733622 l -2.76882,1.447974 v 2.057239 h -2.10788 v -2.997233 l 4.8767,-2.463933 v -3.581176 c 0,-1.5494 -0.88893,-2.438611 -2.36213,-2.438611 z m 0.4067,2.591056 h 2.10788 v 2.260327 l -2.10788,1.015959 z"
       style="font-size:25.4px;line-height:1;font-family:Horizon;-inkscape-font-specification:Horizon;letter-spacing:-0.640292px;word-spacing:0px;opacity:0.555184;fill:#800080;stroke-width:10;stroke-linecap:round;stroke-dashoffset:1.134;paint-order:markers fill stroke"
       id="path1-33"
       sodipodi:nodetypes="ssssssccccccsssccccc" />
    <path
       d="m 257.32797,-26.811786 -0.90652,-1.790157 -7.70446,3.901495 0.90652,1.790156 z m -12.2867,0.812405 19.97549,-10.060314 0.005,3.157882 -6.09195,3.029781 c 0,0 0.3861,0.800968 0.77625,1.571415 l 0.40162,0.793107 c 0.71145,1.404932 0.3297,2.281552 -1.18853,3.050376 l -8.27097,4.188369 c -1.51824,0.768824 -2.42812,0.546279 -3.13957,-0.858653 l -0.40163,-0.793107 -0.79177,-1.563554 z"
       style="font-size:25.4px;line-height:1;font-family:Horizon;-inkscape-font-specification:Horizon;letter-spacing:-0.640292px;word-spacing:0px;fill:#ff00ff;stroke-width:10;stroke-linecap:round;stroke-dashoffset:1.134;paint-order:markers fill stroke"
       id="path1-6"
       sodipodi:nodetypes="cccccccccsssssccc"
       inkscape:transform-center-x="-9.9279135"
       inkscape:transform-center-y="-1.9649261" />
    <path
       d="m 264.20103,-34.041239 -2.0066,0.004 0.0172,8.635985 2.0066,-0.004 z m -4.80347,11.337977 0.005,-22.365826 2.82234,1.416571 -0.0357,6.803686 c 0,0 0.88903,0.01563 1.75263,0.01392 l 0.889,-0.0018 c 1.57479,-0.0031 2.18585,0.732258 2.18924,2.434051 l 0.0184,9.270979 c 0.003,1.701803 -0.6048,2.414209 -2.1796,2.417341 l -0.88901,0.0018 -1.75259,0.0035 z"
       style="font-size:25.4px;line-height:1;font-family:Horizon;-inkscape-font-specification:Horizon;letter-spacing:-0.640292px;word-spacing:0px;fill:#00ffff;stroke-width:10;stroke-linecap:round;stroke-dashoffset:1.134;paint-order:markers fill stroke"
       id="path4"
       sodipodi:nodetypes="cccccccccsssssccc"
       inkscape:transform-center-x="-3.775989"
       inkscape:transform-center-y="-11.135523" />
    <path
       d="m 261.73097,-42.1025 c -1.47293,0.02803 -2.33682,0.863373 -2.33682,2.412773 v 16.983014 h 2.81948 v -9.020827 l 4.23059,-2.219066 v -2.882508 l -4.23059,2.182469 V -39.0215 l 1.65105,0.04295 v 1.398554 l 2.81948,-1.396814 v -0.762227 c 0,-1.5494 -0.8892,-2.440804 -2.36213,-2.412773 z"
       style="font-size:25.4px;line-height:1;font-family:Horizon;-inkscape-font-specification:Horizon;letter-spacing:-0.640292px;word-spacing:0px;fill:#c87137;stroke-width:10;stroke-linecap:round;stroke-dashoffset:1.134;paint-order:markers fill stroke"
       id="path1-5"
       sodipodi:nodetypes="ssccccccccccsss" />
    <path
       id="text2"
       style="font-size:25.4px;line-height:1;font-family:Horizon;-inkscape-font-specification:Horizon;letter-spacing:-0.640292px;word-spacing:0px;fill:#000000;stroke-width:10;stroke-linecap:round;stroke-dashoffset:1.134;paint-order:markers fill stroke"
       d="m 308.41218,-83.355636 -2.81946,1.422653 0.0491,6.803719 c 0,0 -0.88875,0.01705 -1.75235,0.01705 h -0.88935 c -1.5748,0 -2.18436,0.736811 -2.18436,2.438611 v 9.270752 c 0,1.7018 0.60956,2.413289 2.18436,2.413289 h 0.88935 1.75235 2.81947 z m 12.9434,0 -2.81947,1.422653 0.0491,20.943424 h 2.81946 v -11.404989 h 2.0066 v 11.404989 h 2.81946 V -72.6736 c 0,-1.6764 -0.58424,-2.438611 -2.15904,-2.438611 h -0.93999 c -0.8382,0 -1.77612,-0.01757 -1.77612,-0.01757 z m -27.06243,8.243425 c -1.4732,0 -2.36213,0.889211 -2.36213,2.438611 v 2.819466 l 2.76882,-1.422652 c 0,0 0.008,-0.56534 0,-0.848011 -0.009,-0.3237 0.009,-0.388928 0.36587,-0.396358 0.58067,-0.0121 1.74201,0 1.74201,0 v 3.030306 l -4.17184,2.085661 c -0.46864,0.26296 -0.70354,0.613405 -0.70486,1.051615 v 2.951241 c 0,1.7018 0.60957,2.412773 2.18436,2.412773 h 0.88935 1.75235 2.81947 V -72.6736 c 0,-1.5494 -0.88893,-2.438611 -2.36213,-2.438611 z m 35.53891,0 c -1.4732,0 -2.36213,0.889211 -2.36213,2.438611 v 9.270752 c 0,1.5494 0.88893,2.413289 2.36213,2.413289 h 2.87011 c 1.6002,0 2.41329,-0.838411 2.41329,-2.438611 v -9.24543 c 0,-1.5494 -0.88893,-2.438611 -2.36213,-2.438611 z m 6.5226,0 v 14.122652 h 2.81947 v -11.404989 h 2.0066 v 11.404989 h 2.81946 V -72.6736 c 0,-1.6256 -0.7114,-2.438611 -2.1084,-2.438611 h -0.99063 c -0.8636,0 -2.75694,0.117822 -2.75694,0.117822 l 1.02991,-0.117822 z m 11.24686,0 c -1.4732,0 -2.36213,0.889211 -2.36213,2.438611 v 9.270752 c 0,1.5494 0.88893,2.413289 2.36213,2.413289 h 2.92127 c 1.4732,0 2.36213,-0.863889 2.36213,-2.413289 v -3.733623 l -2.76882,1.447974 v 2.057239 h -2.10788 v -2.997233 l 4.8767,-2.463933 V -72.6736 c 0,-1.5494 -0.88893,-2.438611 -2.36213,-2.438611 z m 0.4067,2.591056 h 2.10788 v 2.260327 l -2.10788,1.015959 z m -17.71882,0.126607 h 2.0066 v 8.712647 h -2.0066 z m -26.65419,0.07648 h 2.0066 v 8.636165 h -2.0066 z m -6.82749,5.960876 v 2.725932 h -2.10788 v -1.661914 z"
       sodipodi:nodetypes="cccsssssccccccccccccsssccsscccsccccsscccsssssssssssscccccccssscccssssssccccccssscccccccccccccccccccc" />
    <path
       id="text4"
       style="font-size:25.4px;line-height:1;font-family:Horizon;-inkscape-font-specification:Horizon;letter-spacing:-0.640292px;word-spacing:0px;opacity:1;fill:#000000;stroke-width:10;stroke-linecap:round;stroke-dashoffset:1.134;paint-order:markers fill stroke"
       d="m 566.52872,-80.92116 -2.81947,1.62574 v 3.942912 h -1.52394 v 3.176034 h 1.52394 v 8.330757 c 0,1.5494 0.88893,2.615345 2.36213,2.615345 h 2.50527 v -2.692859 h -2.04793 v -8.253243 h 1.52393 v -3.176034 h -1.52393 z m -7.61091,2.081527 -2.59105,0.04961 c -1.47293,0.02803 -2.33613,0.863373 -2.33681,2.412773 l -0.008,15.146879 h 2.81947 v -6.725688 l 4.23074,-2.139404 v -3.175517 l -4.23074,2.182296 0.008,-4.379061 1.65107,0.04341 v 1.398364 l 2.81946,-1.396814 v -0.762227 c 0,-1.5494 -0.8892,-2.682649 -2.36213,-2.654618 z m -11.45821,3.486608 c -1.4732,0 -2.36213,0.889211 -2.36213,2.438611 v 2.819466 l 2.76882,-1.422652 c 0,0 0.008,-0.565339 0,-0.84801 -0.009,-0.3237 0.009,-0.388928 0.36587,-0.396358 0.58067,-0.0121 1.74253,0 1.74253,0 v 3.030306 l -4.17184,2.085661 c -0.46864,0.26296 -0.70406,0.613405 -0.70538,1.051615 v 2.950724 c 0,1.7018 0.60957,2.41329 2.18436,2.41329 h 0.88935 1.75235 2.81947 v -11.684042 c 0,-1.5494 -0.88893,-2.438611 -2.36213,-2.438611 z m 2.51509,8.754505 v 2.726448 h -2.1084 v -1.661914 z"
       sodipodi:nodetypes="ccccccsscccccccccccccccccccccsscsscccsccccsscccsssccccc" />
    <path
       d="m 68.957078,16.741428 1.94324,8.41452 -1.95513,0.45152 -1.94326,-8.41452 z m -2.15314,12.12381 2.7471,-0.63442 v 0 l 1.70764,-0.39437 0.8662,-0.20004 c 1.53443,-0.35437 1.96835,-1.18449 1.58542,-2.84266 l -2.08615,-9.03323 c -0.38294,-1.65816 -1.14269,-2.23867 -2.67706,-1.88433 l -0.86622,0.20004 -1.70764,0.39437 -1.85102,-8.0150597 -2.42701,2.02035 z"
       style="font-weight:bold;font-size:25.4px;line-height:1;font-family:Horizon;-inkscape-font-specification:'Horizon Bold';letter-spacing:-0.640292px;word-spacing:0px;fill:#00ff00;stroke-width:10;stroke-linecap:round;stroke-dashoffset:1.134;paint-order:markers fill stroke"
       id="path3"
       inkscape:transform-center-x="-5.8730417"
       inkscape:transform-center-y="9.1812471" />
    <path
       d="m 69.305908,16.868738 -2.26256,8.33434 -1.9365,-0.52571 2.26255,-8.33435 z m -7.62535,9.66833 2.72091,0.73866 v 0 l 1.69138,0.45915 0.85795,0.23291 c 1.5198,0.41259 2.29442,-0.11406 2.74029,-1.75642 l 2.4289,-8.94717 c 0.44586,-1.64235 0.0505,-2.51293 -1.46926,-2.92551 l -0.85795,-0.23292 -1.69138,-0.45916 2.15513,-7.93868 -3.09357,0.63406 z"
       style="font-weight:bold;font-size:25.4px;line-height:1;font-family:Horizon;-inkscape-font-specification:'Horizon Bold';letter-spacing:-0.640292px;word-spacing:0px;fill:#ff00ff;stroke-width:10;stroke-linecap:round;stroke-dashoffset:1.134;paint-order:markers fill stroke"
       id="path1-9"
       inkscape:transform-center-x="0.17510326"
       inkscape:transform-center-y="10.560006" />
    <path
       id="text1"
       style="font-weight:bold;font-size:25.4px;line-height:1;font-family:Horizon;-inkscape-font-specification:'Horizon Bold';letter-spacing:-0.640292px;word-spacing:0px;stroke-width:10;stroke-linecap:round;stroke-dashoffset:1.134;paint-order:markers fill stroke"
       d="m 238.74512,-83.355636 -2.81947,1.422136 v 6.954097 h -1.75235 -0.88935 c -1.15741,0.0223 -2.18436,0.736821 -2.18436,2.438611 v 9.270752 c 0,1.7018 0.60956,2.41329 2.18436,2.41329 h 0.88935 4.57182 z m 4.05866,0.150379 -2.81946,1.422135 v 20.926372 h 2.81946 1.75235 0.88935 c 1.5748,0 2.18437,-0.71149 2.18437,-2.41329 v -9.270752 c 0,-1.7018 -0.60957,-2.438611 -2.18437,-2.438611 h -0.88935 -1.75235 z m -50.71938,2.363163 -5.23224,19.989994 h 2.6417 l 5.23224,-19.989994 z m 18.85061,0.534334 -2.81947,1.625741 v 3.688664 h -1.52394 v 3.176033 h 1.52394 v 8.345744 c 0,1.5494 0.88893,2.614828 2.36213,2.614828 h 1.98481 v -2.692859 h -1.52747 v -8.267713 h 1.52393 v -3.176033 h -1.52393 z m -41.54897,5.328357 c -1.4732,0 -2.36213,0.889211 -2.36213,2.438611 v 9.270752 c 0,1.5494 0.88893,2.41329 2.36213,2.41329 h 2.87011 c 1.6002,0 2.41277,-0.838411 2.41277,-2.438611 v -9.245431 c 0,-1.5494 -0.88892,-2.438611 -2.36212,-2.438611 z m 6.5226,0 v 14.122653 h 2.81895 v -11.404989 h 2.0066 v 11.404989 h 2.81946 v -11.684042 c 0,-1.6256 -0.71088,-2.438611 -2.10788,-2.438611 h -0.99063 -1.72755 z m 24.4781,0 c -1.4732,0 -2.36213,0.889211 -2.36213,2.438611 v 3.269051 l 4.91442,4.165637 -0.0884,1.556495 h -2.0066 v -1.54926 l -2.81946,-0.01705 v 1.845882 c 0,1.5494 0.88893,2.412773 2.36213,2.412773 h 2.92126 c 3.67629,0 2.36213,-5.743319 2.36213,-5.743319 l -4.82606,-4.020943 v -1.64021 h 2.0066 v 1.244885 l 2.81946,-0.01292 v -1.536857 c 0,0 -0.88893,-2.412773 -2.36213,-2.412773 z m 15.30552,0 c -1.4732,0 -2.36213,0.889211 -2.36213,2.438611 v 2.819466 l 2.76882,-1.422652 c 0,0 0.008,-0.565857 0,-0.848527 -0.009,-0.3237 0.009,-0.388411 0.36587,-0.395841 0.58067,-0.0121 1.74202,0 1.74202,0 v 2.133203 l -4.17184,2.086177 c -0.46864,0.26296 -0.70355,0.613406 -0.70487,1.051616 v 3.84731 c 0,1.7018 0.60956,2.41329 2.18436,2.41329 h 0.88936 1.75234 2.81947 v -11.684042 c 0,-1.5494 -0.88893,-2.438611 -2.36213,-2.438611 z m 6.5226,0 v 14.122653 h 2.81947 v -11.404989 h 2.00659 v 11.404989 h 2.81947 v -11.684042 c 0,-1.6256 -0.7114,-2.438611 -2.1084,-2.438611 h -0.99064 -1.72702 z m 26.0811,0 3.08301,13.284978 -1.34669,4.940783 h 2.92902 l 4.97438,-18.225761 h -2.92334 l -2.08514,7.547343 -1.68931,-7.547343 z m -78.4531,2.717664 h 2.0066 v 8.71213 h -2.0066 z m 64.0762,0.07648 h 2.00659 v 8.635649 h -2.00659 z m 8.88472,0 h 2.0066 v 8.635649 h -2.0066 z m -24.59694,4.673617 v 4.013191 h -2.10789 v -2.971911 z"
       sodipodi:nodetypes="cccccsssccccccccssssccccccccccccccssccccccccssssssssscccccccsscccssccccccssscccccccsssscccsccccsscccssscccccccsscccccccccccccccccccccccccccccccc" />
    <path
       d="m 398.29787,-71.162783 v -1.53647 c 0,0 -0.889,-2.413 -2.3622,-2.413 h -2.921 c -1.4732,0 -2.3622,0.889 -2.3622,2.4384 v 3.26914 l 4.91418,4.16558 -0.0882,1.55688 h -2.0066 v -1.5494 l -2.8194,-0.0171 v 1.84586 c 0,1.5494 0.889,2.413 2.3622,2.413 h 2.921 c 3.67629,0 2.3622,-5.74367 2.3622,-5.74367 l -4.826,-4.02087 v -1.64006 h 2.0066 v 1.2446 z m 6.0653,-1.17276 v 8.636 h -2.0066 v -8.636 z m -4.826,11.3284 h 2.8194 v 0 h 1.7526 0.889 c 1.5748,0 2.1844,-0.7112 2.1844,-2.413 v -9.271 c 0,-1.7018 -0.6096,-2.4384 -2.1844,-2.4384 h -0.889 -1.7526 v -8.22601 l -2.8194,1.4224 z"
       style="font-size:25.4px;line-height:1;font-family:Horizon;-inkscape-font-specification:Horizon;letter-spacing:-0.640292px;word-spacing:0px;fill:#000000;stroke-width:10;stroke-linecap:round;stroke-dashoffset:1.134;paint-order:markers fill stroke"
       id="path1"
       sodipodi:nodetypes="ccsssccccccssscccccccccccccccssssccccc" />
    <path
       id="path1-4"
       style="font-weight:bold;font-size:25.4px;line-height:1;font-family:Horizon;-inkscape-font-specification:'Horizon Bold';letter-spacing:-0.640292px;word-spacing:0px;stroke-width:10;stroke-linecap:round;stroke-dashoffset:1.134;paint-order:markers fill stroke"
       d="m 448.66672,-75.03239 c -1.4732,0 -2.36213,0.8887 -2.36213,2.4381 v 2.81946 l 2.76831,-1.42213 c 0,0 0.008,-0.56586 0,-0.84853 -0.009,-0.3237 0.009,-0.38893 0.36587,-0.39636 0.58067,-0.0121 1.74253,0 1.74253,0 v 2.13372 l -4.17184,2.08566 c -0.46864,0.26296 -0.70355,0.61393 -0.70487,1.05214 v 3.84731 c 0,1.7018 0.60956,2.41277 2.18436,2.41277 h 0.88884 1.75286 2.81947 v -11.68404 c 0,-1.5494 -0.88945,-2.4381 -2.36265,-2.4381 z m 6.79442,0.0269 v 11.68404 c 0,1.6256 0.7114,2.43861 2.1084,2.43861 h 0.99012 4.54701 v -14.12265 h -2.81947 v 11.40447 h -2.0066 v -11.40447 z m -4.27984,7.44037 v 4.01319 h -2.1084 v -2.97139 z"
       sodipodi:nodetypes="sscccsccccsscccssscssccccccccccccc" />
    <path
       d="m 482.44208,-75.112253 v 14.1224 h 2.8194 v -11.4046 h 2.0066 v 11.4046 h 2.8194 v -11.684 c 0,-1.6256 -0.7112,-2.4384 -2.1082,-2.4384 z"
       style="font-size:25.4px;line-height:1;font-family:Horizon;-inkscape-font-specification:Horizon;letter-spacing:-0.640292px;word-spacing:0px;fill:#000000;stroke-width:10;stroke-linecap:round;stroke-dashoffset:1.134;paint-order:markers fill stroke"
       id="path1-93"
       sodipodi:nodetypes="cccccccssc" />
    <g
       id="g3">
      <path
         id="text3"
         style="font-size:25.4px;line-height:1;font-family:Horizon;-inkscape-font-specification:Horizon;letter-spacing:-0.640292px;word-spacing:0px;stroke-width:10;stroke-linecap:round;stroke-dashoffset:1.134;paint-order:markers fill stroke"
         d="m 534.78338,-83.595931 -2.81947,1.422135 0.0491,6.80372 c 0,0 -0.88926,0.01757 -1.75286,0.01757 h -0.88883 c -1.5748,0 -2.18437,0.736295 -2.18437,2.438095 v 9.271268 c 0,1.7018 0.60957,2.412773 2.18437,2.412773 h 0.88883 1.75286 2.81947 z m -4.77697,11.037052 h 2.00659 v 8.636166 h -2.00659 z"
         sodipodi:nodetypes="cccsssssccccccccc" />
    </g>
    <path
       d="m 497.68363,-75.112253 h 2.81947 v 15.610933 c 0,1.5494 -0.88893,2.614828 -2.36213,2.614828 h -1.98481 v -2.692859 h 1.52747 z m 0.002,-4.38588 v 2.783697 h 2.8194 v -2.783697"
       style="font-weight:bold;font-size:25.4px;line-height:1;font-family:Horizon;-inkscape-font-specification:'Horizon Bold';letter-spacing:-0.640292px;word-spacing:0px;stroke-width:10;stroke-linecap:round;stroke-dashoffset:1.134;paint-order:markers fill stroke"
       id="path1-3"
       sodipodi:nodetypes="ccsscccccccc"
       inkscape:export-filename="j.svg"
       inkscape:export-xdpi="96"
       inkscape:export-ydpi="96" />
    <path
       id="path1-38"
       style="font-weight:bold;font-size:25.4px;line-height:1;font-family:Horizon;-inkscape-font-specification:'Horizon Bold';letter-spacing:-0.640292px;word-spacing:0px;opacity:1;fill:#000000;stroke-width:10;stroke-linecap:round;stroke-dashoffset:1.134;paint-order:markers fill stroke"
       d="m 377.48455,-80.680349 -2.81946,1.625741 v 3.942912 h -1.52394 v 3.176033 h 1.52394 v 8.330758 c 0,1.5494 0.88893,2.615344 2.36213,2.615344 h 2.50527 v -2.692859 h -2.04794 v -8.253243 h 1.52394 v -3.176033 h -1.52394 z"
       sodipodi:nodetypes="ccccccsscccccccc" />
    <path
       d="m 366.28286,-77.289413 c -1.47259,0.04241 -2.33407,0.875692 -2.32408,2.42506 l 0.0895,13.874794 2.81944,-0.01508 -0.0475,-6.815297 2.98973,-1.588337 -0.0152,-2.882458 -2.98991,1.551729 -0.0231,-3.4379 h 1.25209 l 0.007,1.398544 2.81208,-1.398544 -0.004,-0.775321 c -0.008,-1.54938 -0.90221,-2.442712 -2.37481,-2.4003 z"
       style="font-size:25.4px;line-height:1;font-family:Horizon;-inkscape-font-specification:Horizon;letter-spacing:-0.640292px;word-spacing:0px;fill:#000000;stroke-width:10;stroke-linecap:round;stroke-dashoffset:1.134;paint-order:markers fill stroke"
       id="path5"
       inkscape:transform-center-x="-0.76228723"
       inkscape:transform-center-y="-5.2107192"
       sodipodi:nodetypes="ssccccccccccsss"
       inkscape:export-filename="f.svg"
       inkscape:export-xdpi="96"
       inkscape:export-ydpi="96" />
    <path
       d="m 411.86404,-83.558894 -2.81947,1.625741 0.006,18.328472 c 5.1e-4,1.5494 0.88893,2.614828 2.36213,2.614828 h 1.98481 v -2.692859 h -1.52747 z"
       style="font-weight:bold;font-size:25.4px;line-height:1;font-family:Horizon;-inkscape-font-specification:'Horizon Bold';letter-spacing:-0.640292px;word-spacing:0px;stroke-width:10;stroke-linecap:round;stroke-dashoffset:1.134;paint-order:markers fill stroke"
       id="path1-65"
       sodipodi:nodetypes="ccsscccc"
       inkscape:export-filename="l.svg"
       inkscape:export-xdpi="96"
       inkscape:export-ydpi="96" />
    <path
       id="path1-48"
       style="font-size:25.4px;line-height:1;font-family:Horizon;-inkscape-font-specification:Horizon;letter-spacing:-0.640292px;word-spacing:0px;fill:#000000;stroke-width:10;stroke-linecap:round;stroke-dashoffset:1.134;paint-order:markers fill stroke"
       d="m 415.08828,-75.084271 v 3.928951 10.193701 h 2.81947 v -11.30452 l 1.65306,0.0011 v 9.842117 l 2.81947,-1.409217 v -8.430973 l 1.63143,0.0011 -0.0305,11.300347 h 2.81947 l 0.0305,-11.823568 c 0.004,-1.625595 -0.7114,-2.299084 -2.1084,-2.299084 h -4.4509 -0.71107 -0.27957 -1.3735 z"
       sodipodi:nodetypes="cccccccccccccsccccc"
       inkscape:export-filename="m.svg"
       inkscape:export-xdpi="96"
       inkscape:export-ydpi="96" />
    <path
       id="path1-48-9"
       style="font-size:25.4px;line-height:1;font-family:Horizon;-inkscape-font-specification:Horizon;letter-spacing:-0.640292px;word-spacing:0px;fill:#000000;stroke-width:10;stroke-linecap:round;stroke-dashoffset:1.134;paint-order:markers fill stroke"
       d="m 430.37321,-75.084306 c -1.38704,0 -2.10115,0.66546 -2.10736,2.266012 l -10e-4,10e-4 v 0.01809 c -1e-5,0.0047 -2e-5,0.0093 0,0.01395 l -0.0248,9.524483 c -0.004,1.625595 0.7114,2.299084 2.1084,2.299084 h 4.45089 0.71107 0.27957 1.37356 2.81946 v -3.928959 -10.193693 h -2.81946 v 11.304737 l -1.65313,-0.0016 v -6.444994 l -2.81947,1.409216 v 5.034228 l -1.63142,-10e-4 0.0305,-11.300602 z"
       sodipodi:nodetypes="sccsccscccccccccccccccs"
       inkscape:export-filename="w.svg"
       inkscape:export-xdpi="96"
       inkscape:export-ydpi="96" />
    <path
       id="path1-1"
       style="font-weight:bold;font-size:25.4px;line-height:1;font-family:Horizon;-inkscape-font-specification:'Horizon Bold';letter-spacing:-0.640292px;word-spacing:0px;stroke-width:10;stroke-linecap:round;stroke-dashoffset:1.134;paint-order:markers fill stroke"
       d="m 573.01718,-72.659649 h 2.0066 V -64.024 h -2.0066 z m 4.77387,8.997007 v -9.270752 c 0,-1.7018 -0.6033,-2.419114 -2.1781,-2.419114 h -0.88935 -2.34152 c -1.5748,0 -2.18437,0.71149 -2.18437,2.41329 v 9.270752 c 0,1.70179 1.02696,2.416311 2.18437,2.438611 h 2.5895 v 1.690336 h -4.76427 v 2.412775 h 5.22161 c 1.5864,0 2.37766,-0.71197 2.36213,-2.552816 z"
       sodipodi:nodetypes="ccccccssccsscccccscc"
       inkscape:export-filename="g.svg"
       inkscape:export-xdpi="96"
       inkscape:export-ydpi="96" />
    <path
       d="m 589.09146,-75.290642 v 18.358569 H 586.272 v -4.253487 l -1.75287,0.01757 h -0.88883 c -1.6256,0 -2.18436,-0.711489 -2.18436,-2.413289 v -9.270752 c 0,-1.7018 0.60956,-2.438611 2.18436,-2.438611 h 0.88883 1.75287 z m -2.81946,2.717663 h -2.0066 v 8.636166 h 2.0066 z"
       style="font-size:25.4px;line-height:1;font-family:Horizon;-inkscape-font-specification:Horizon;letter-spacing:-0.640292px;word-spacing:0px;fill:#000000;stroke-width:10;stroke-linecap:round;stroke-dashoffset:1.134;paint-order:markers fill stroke"
       id="path1-45"
       inkscape:export-filename="q.svg"
       inkscape:export-xdpi="96"
       inkscape:export-ydpi="96" />
    <path
       d="m 502.21809,-75.040296 v 14.1224 h 2.8194 l 0,-10.730896 1.4478,-0.673704 v 2.4384 l 2.8194,-1.4224 v -1.2954 c 0,-1.6256 -0.7112,-2.4384 -2.1082,-2.4384 z"
       id="text5"
       style="font-size:25.4px;line-height:1;font-family:Horizon;-inkscape-font-specification:Horizon;letter-spacing:-0.640292px;word-spacing:0px;stroke-width:10;stroke-linecap:round;stroke-dashoffset:1.134;paint-order:markers fill stroke"
       aria-label="r"
       sodipodi:nodetypes="cccccccssc"
       inkscape:export-filename="r.svg"
       inkscape:export-xdpi="96"
       inkscape:export-ydpi="96" />
    <path
       d="m 261.57253,-74.979403 3.08301,13.989844 h 2.92902 l 3.62769,-13.989844 h -2.92334 l -2.08514,8.252209 -1.68931,-8.252209 z m 3.08301,13.989844 h 2.92902"
       style="font-weight:bold;font-size:25.4px;line-height:1;font-family:Horizon;-inkscape-font-specification:'Horizon Bold';letter-spacing:-0.640292px;word-spacing:0px;stroke-width:10;stroke-linecap:round;stroke-dashoffset:1.134;paint-order:markers fill stroke"
       id="path1-0"
       sodipodi:nodetypes="cccccccccc"
       inkscape:export-filename="v.svg"
       inkscape:export-xdpi="96"
       inkscape:export-ydpi="96" />
    <path
       d="m 241.02458,-105.43527 c -1.4732,0 -2.36213,0.88921 -2.36213,2.43861 v 9.270755 c 0,1.5494 0.88894,2.413289 2.36213,2.413289 h 2.92127 c 1.4732,0 2.36213,-0.863889 2.36213,-2.413289 v -3.121259 l -2.76883,1.394744 v 1.498105 h -2.10788 v -3.428739 c 1.88374,-0.0225 3.66793,-1.13903 4.45503,-1.70739 0.26405,-0.19067 0.41179,-0.28944 0.42168,-0.84491 0.0228,-1.280116 0,-3.061306 0,-3.061306 0,-1.5494 -0.88893,-2.43861 -2.36213,-2.43861 z m 0.4067,2.59106 h 2.34043 v 2.26032 c -0.38192,0.604166 -1.16201,0.942786 -2.34043,1.015956 z"
       style="font-size:25.4px;line-height:1;font-family:Horizon;-inkscape-font-specification:Horizon;letter-spacing:-0.640292px;word-spacing:0px;fill:#d40000;stroke-width:10;stroke-linecap:round;stroke-dashoffset:1.134;paint-order:markers fill stroke"
       id="path1-55" />
    <path
       d="m 157.55726,-74.699832 v 2.438609 1.628841 l -4.82602,7.362342 v 0 h 2.0066 2.81946 v 2.692345 h -5.28339 c -3.67629,0 -2.27373,-4.186824 -2.27373,-4.186824 l 4.73766,-7.217648 v 0 h -2.0066 -2.81946 v -2.717665 z"
       style="font-weight:bold;font-size:25.4px;line-height:1;font-family:Horizon;-inkscape-font-specification:'Horizon Bold';letter-spacing:-0.640292px;word-spacing:0px;stroke-width:10;stroke-linecap:round;stroke-dashoffset:1.134;paint-order:markers fill stroke"
       id="path1-2"
       sodipodi:nodetypes="ccccccccsccccccc"
       inkscape:export-filename="z.svg"
       inkscape:export-xdpi="96"
       inkscape:export-ydpi="96" />
    <path
       d="m 167.80633,-54.786394 c -1.4732,0 -2.36213,0.889211 -2.36213,2.438611 v 9.270752 c 0,1.5494 0.88893,2.41329 2.36213,2.41329 h 2.87011 c 1.6002,0 2.41277,-0.838411 2.41277,-2.438611 v -9.245431 c 0,-1.5494 -0.88892,-2.438611 -2.36212,-2.438611 z m 0.45682,2.717664 h 2.0066 v 8.71213 h -2.0066 z"
       style="font-weight:bold;font-size:25.4px;line-height:1;font-family:Horizon;-inkscape-font-specification:'Horizon Bold';letter-spacing:-0.640292px;word-spacing:0px;stroke-width:10;stroke-linecap:round;stroke-dashoffset:1.134;paint-order:markers fill stroke"
       id="path1-96"
       inkscape:export-filename="o.svg"
       inkscape:export-xdpi="96"
       inkscape:export-ydpi="96" />
    <path
       d="m 184.37531,-52.48982 v 14.122653 h 2.81895 v -11.404989 h 2.0066 v 11.404989 h 2.81946 v -11.684042 c 0,-1.6256 -0.71088,-2.438611 -2.10788,-2.438611 h -0.99063 -1.72755 z"
       style="font-weight:bold;font-size:25.4px;line-height:1;font-family:Horizon;-inkscape-font-specification:'Horizon Bold';letter-spacing:-0.640292px;word-spacing:0px;stroke-width:10;stroke-linecap:round;stroke-dashoffset:1.134;paint-order:markers fill stroke"
       id="path1-22" />
    <path
       d="m 200.0219,-53.590011 -5.23224,19.989994 h 2.6417 l 5.23224,-19.989994 z"
       style="font-weight:bold;font-size:25.4px;line-height:1;font-family:Horizon;-inkscape-font-specification:'Horizon Bold';letter-spacing:-0.640292px;word-spacing:0px;stroke-width:10;stroke-linecap:round;stroke-dashoffset:1.134;paint-order:markers fill stroke"
       id="path1-08" />
    <path
       d="m 204.09091,-48.52107 c -1.4732,0 -2.36213,0.889211 -2.36213,2.438611 v 3.269051 l 4.91442,4.165637 -0.0884,1.556495 h -2.0066 v -1.54926 l -2.81946,-0.01705 v 1.845882 c 0,1.5494 0.88893,2.412773 2.36213,2.412773 h 2.92126 c 3.67629,0 2.36213,-5.743319 2.36213,-5.743319 l -4.82606,-4.020943 v -1.64021 h 2.0066 v 1.244885 l 2.81946,-0.01292 v -1.536857 c 0,0 -0.88893,-2.412773 -2.36213,-2.412773 z"
       style="font-weight:bold;font-size:25.4px;line-height:1;font-family:Horizon;-inkscape-font-specification:'Horizon Bold';letter-spacing:-0.640292px;word-spacing:0px;stroke-width:10;stroke-linecap:round;stroke-dashoffset:1.134;paint-order:markers fill stroke"
       id="path1-04"
       inkscape:export-filename="s.svg"
       inkscape:export-xdpi="96"
       inkscape:export-ydpi="96" />
    <path
       d="m 156.69543,-44.853593 -2.81947,1.625741 v 3.688664 h -1.52394 v 3.176033 h 1.52394 v 8.345744 c 0,1.5494 0.88893,2.614828 2.36213,2.614828 h 1.98481 v -2.692859 h -1.52747 v -8.267713 h 1.52393 v -3.176033 h -1.52393 z"
       style="font-weight:bold;font-size:25.4px;line-height:1;font-family:Horizon;-inkscape-font-specification:'Horizon Bold';letter-spacing:-0.640292px;word-spacing:0px;stroke-width:10;stroke-linecap:round;stroke-dashoffset:1.134;paint-order:markers fill stroke"
       id="path1-28"
       inkscape:export-filename="t.svg"
       inkscape:export-xdpi="96"
       inkscape:export-ydpi="96" />
    <path
       d="m 222.83601,-53.28357 c -1.4732,0 -2.36213,0.889211 -2.36213,2.438611 v 2.819466 l 2.76882,-1.422652 c 0,0 0.008,-0.565857 0,-0.848527 -0.009,-0.3237 0.009,-0.388411 0.36587,-0.395841 0.58067,-0.0121 1.74202,0 1.74202,0 v 2.133203 l -4.17184,2.086177 c -0.46864,0.26296 -0.70355,0.613406 -0.70487,1.051616 v 3.84731 c 0,1.7018 0.60956,2.41329 2.18436,2.41329 h 0.88936 1.75234 2.81947 v -11.684042 c 0,-1.5494 -0.88893,-2.438611 -2.36213,-2.438611 z m 2.51458,7.467761 v 4.013191 h -2.10789 v -2.971911 z"
       style="font-weight:bold;font-size:25.4px;line-height:1;font-family:Horizon;-inkscape-font-specification:'Horizon Bold';letter-spacing:-0.640292px;word-spacing:0px;stroke-width:10;stroke-linecap:round;stroke-dashoffset:1.134;paint-order:markers fill stroke"
       id="path1-50"
       inkscape:export-filename="a.svg"
       inkscape:export-xdpi="96"
       inkscape:export-ydpi="96" />
    <path
       d="M 230.94611,-51.960653 V -37.838 h 2.81947 v -11.404989 h 2.00659 V -37.838 h 2.81947 v -11.684042 c 0,-1.6256 -0.7114,-2.438611 -2.1084,-2.438611 h -0.99064 -1.72702 z"
       style="font-weight:bold;font-size:25.4px;line-height:1;font-family:Horizon;-inkscape-font-specification:'Horizon Bold';letter-spacing:-0.640292px;word-spacing:0px;stroke-width:10;stroke-linecap:round;stroke-dashoffset:1.134;paint-order:markers fill stroke"
       id="path1-7"
       inkscape:export-filename="n.svg"
       inkscape:export-xdpi="96"
       inkscape:export-ydpi="96" />
    <path
       d="m 252.76804,-52.928553 -2.81947,1.422136 v 6.954097 h -1.75235 -0.88935 c -1.15741,0.0223 -2.18436,0.736821 -2.18436,2.438611 v 9.270752 c 0,1.7018 0.60956,2.41329 2.18436,2.41329 h 0.88935 4.57182 z m -4.82606,11.170377 h 2.00659 v 8.635649 h -2.00659 z"
       style="font-weight:bold;font-size:25.4px;line-height:1;font-family:Horizon;-inkscape-font-specification:'Horizon Bold';letter-spacing:-0.640292px;word-spacing:0px;stroke-width:10;stroke-linecap:round;stroke-dashoffset:1.134;paint-order:markers fill stroke"
       id="path1-40"
       inkscape:export-filename="d.svg"
       inkscape:export-xdpi="96"
       inkscape:export-ydpi="96" />
    <path
       d="m 215.28711,-34.521924 -2.81946,1.422135 v 20.926372 h 2.81946 1.75235 0.88935 c 1.5748,0 2.18437,-0.71149 2.18437,-2.41329 v -9.270752 c 0,-1.7018 -0.60957,-2.438611 -2.18437,-2.438611 h -0.88935 -1.75235 z m 0,11.019998 h 2.0066 v 8.635649 h -2.0066 z"
       style="font-weight:bold;font-size:25.4px;line-height:1;font-family:Horizon;-inkscape-font-specification:'Horizon Bold';letter-spacing:-0.640292px;word-spacing:0px;stroke-width:10;stroke-linecap:round;stroke-dashoffset:1.134;paint-order:markers fill stroke"
       id="path1-8"
       inkscape:export-filename="b.svg"
       inkscape:export-xdpi="96"
       inkscape:export-ydpi="96" />
    <path
       d="m 270.04191,-53.132514 3.08301,13.284978 -1.34669,4.940783 h 2.92902 l 4.97438,-18.225761 h -2.92334 l -2.08514,7.547343 -1.68931,-7.547343 z"
       style="font-weight:bold;font-size:25.4px;line-height:1;font-family:Horizon;-inkscape-font-specification:'Horizon Bold';letter-spacing:-0.640292px;word-spacing:0px;stroke-width:10;stroke-linecap:round;stroke-dashoffset:1.134;paint-order:markers fill stroke"
       id="path1-09"
       sodipodi:nodetypes="ccccccccc"
       inkscape:export-filename="y.svg"
       inkscape:export-xdpi="96"
       inkscape:export-ydpi="96" />
    <path
       d="m 290.69026,-53.986886 -2.81946,1.422653 0.0491,20.943424 h 2.81947 v -11.404989 h 2.00659 v 11.404989 h 2.81947 V -43.30485 c 0,-1.6764 -0.58424,-2.438611 -2.15904,-2.438611 h -0.93948 -1.72754 z"
       style="font-size:25.4px;line-height:1;font-family:Horizon;-inkscape-font-specification:Horizon;letter-spacing:-0.640292px;word-spacing:0px;fill:#000000;stroke-width:10;stroke-linecap:round;stroke-dashoffset:1.134;paint-order:markers fill stroke"
       id="path1-54"
       inkscape:export-filename="h.svg"
       inkscape:export-xdpi="96"
       inkscape:export-ydpi="96" />
    <path
       d="m 301.81259,-49.976794 c -1.4732,0 -2.36213,0.889211 -2.36213,2.438611 v 9.270752 c 0,1.5494 0.88893,2.413289 2.36213,2.413289 h 2.92127 c 1.4732,0 2.36213,-0.863889 2.36213,-2.413289 v -3.121257 l -2.76883,1.394747 v 1.4981 h -2.10788 v -3.428731 c 1.88374,-0.0225 3.66793,-1.13903 4.45503,-1.70739 0.26405,-0.19067 0.41179,-0.289439 0.42168,-0.844909 0.0228,-1.28012 0,-3.061312 0,-3.061312 0,-1.5494 -0.88893,-2.438611 -2.36213,-2.438611 z m 0.40669,2.591056 h 2.34043 v 2.260327 c -0.38192,0.60417 -1.16201,0.942789 -2.34043,1.015959 z"
       style="font-size:25.4px;line-height:1;font-family:Horizon;-inkscape-font-specification:Horizon;letter-spacing:-0.640292px;word-spacing:0px;fill:#000000;stroke-width:10;stroke-linecap:round;stroke-dashoffset:1.134;paint-order:markers fill stroke"
       id="path1-19"
       inkscape:export-filename="e.svg"
       inkscape:export-xdpi="96"
       inkscape:export-ydpi="96" />
    <path
       d="m 329.54423,-54.210128 v 18.358569 h 2.81946 v -4.253487 l 1.75287,0.01757 h 0.88883 c 1.6256,0 2.18436,-0.711489 2.18436,-2.413289 v -9.270752 c 0,-1.7018 -0.60956,-2.438611 -2.18436,-2.438611 h -0.88883 -1.75287 z m 2.81946,2.717663 h 2.0066 v 8.636166 h -2.0066 z"
       style="font-size:25.4px;line-height:1;font-family:Horizon;-inkscape-font-specification:Horizon;letter-spacing:-0.640292px;word-spacing:0px;fill:#000000;stroke-width:10;stroke-linecap:round;stroke-dashoffset:1.134;paint-order:markers fill stroke"
       id="path1-80"
       inkscape:export-filename="p.svg"
       inkscape:export-xdpi="96"
       inkscape:export-ydpi="96" />
    <path
       d="m 375.76114,-56.617216 -2.81998,1.422135 -0.005,18.282605 h 2.81947 v -6.725688 l 2.02106,6.725688 h 2.92902 l -2.78587,-9.445935 3.35587,-4.876705 h -3.49902 l -2.02106,2.859774 z"
       style="font-weight:bold;font-size:25.4px;line-height:1;font-family:Horizon;-inkscape-font-specification:'Horizon Bold';letter-spacing:-0.640292px;word-spacing:0px;fill:#000000;stroke-width:10;stroke-linecap:round;stroke-dashoffset:1.134;paint-order:markers fill stroke"
       id="path1-507"
       inkscape:export-filename="k.svg"
       inkscape:export-xdpi="96"
       inkscape:export-ydpi="96" />
    <path
       d="m 391.00069,-36.91277 v -14.1224 h -2.8194 v 11.4046 h -2.0066 v -11.4046 h -2.8194 v 11.684 c 0,1.6256 0.7112,2.4384 2.1082,2.4384 h 0.9906 z"
       style="font-size:25.4px;line-height:1;font-family:Horizon;-inkscape-font-specification:Horizon;letter-spacing:-0.640292px;word-spacing:0px;fill:#000000;stroke-width:10;stroke-linecap:round;stroke-dashoffset:1.134;paint-order:markers fill stroke"
       id="path1-23"
       inkscape:export-filename="u.svg"
       inkscape:export-xdpi="96"
       inkscape:export-ydpi="96" />
    <path
       d="m 466.6894,-56.484657 1.57768,6.83265 -1.57768,7.29 h 2.89336 l 0.73329,-3.91191 0.86196,3.91191 h 2.93006 l -1.85209,-7.29 1.85209,-6.83265 h -2.93006 l -0.86196,3.17448 -0.73329,-3.17448 z"
       style="font-weight:bold;font-size:25.4px;line-height:1;font-family:Horizon;-inkscape-font-specification:'Horizon Bold';letter-spacing:-0.640292px;word-spacing:0px;stroke-width:10;stroke-linecap:round;stroke-dashoffset:1.134;paint-order:markers fill stroke"
       id="path1-080"
       inkscape:export-filename="x.svg"
       inkscape:export-xdpi="96"
       inkscape:export-ydpi="96" />
    <path
       d="m 445.24135,-44.156003 v 14.1224 h 2.8194 v -14.1224 m -2.8194,-4.38588 v 2.783697 h 2.8194 v -2.783697"
       style="font-size:25.4px;line-height:1;font-family:Horizon;-inkscape-font-specification:Horizon;letter-spacing:-0.640292px;word-spacing:0px;fill:#000000;stroke-width:10;stroke-linecap:round;stroke-dashoffset:1.134;paint-order:markers fill stroke"
       id="path1-64"
       inkscape:export-filename="i.svg"
       inkscape:export-xdpi="96"
       inkscape:export-ydpi="96" />
    <path
       d="m 518.75593,-57.36084 c -1.4732,0 -2.36213,0.888695 -2.36213,2.438095 v 9.271268 c 0,1.5494 0.88893,2.412773 2.36213,2.412773 h 2.92075 c 1.4732,0 2.36213,-0.863373 2.36213,-2.412773 v -3.581693 l -2.81895,1.422652 v 1.879472 h -2.00659 v -8.71213 h 2.00659 v 2.667021 l 2.81895,-1.422652 v -1.523938 c 0,-1.5494 -0.88893,-2.438095 -2.36213,-2.438095 z"
       style="font-size:25.4px;line-height:1;font-family:Horizon;-inkscape-font-specification:Horizon;letter-spacing:-0.640292px;word-spacing:0px;stroke-width:10;stroke-linecap:round;stroke-dashoffset:1.134;paint-order:markers fill stroke"
       id="path1-12"
       inkscape:export-filename="c.svg"
       inkscape:export-xdpi="96"
       inkscape:export-ydpi="96" />
  </g>
</svg>
