<?xml version="1.0" encoding="UTF-8" standalone="no"?>
<!-- Created with Inkscape (http://www.inkscape.org/) -->

<svg
   width="7.6455278mm"
   height="22.498888mm"
   viewBox="0 0 7.6455278 22.498888"
   version="1.1"
   id="svg1"
   xmlns="http://www.w3.org/2000/svg"
   xmlns:svg="http://www.w3.org/2000/svg">
  <defs
     id="defs1" />
  <g
     id="layer1"
     transform="translate(-245.12249,52.928557)">
    <path
       d="m 257.32797,-26.811786 -0.90652,-1.790157 -7.70446,3.901495 0.90652,1.790156 z m -12.2867,0.812405 19.97549,-10.060314 0.005,3.157882 -6.09195,3.029781 c 0,0 0.3861,0.800968 0.77625,1.571415 l 0.40162,0.793107 c 0.71145,1.404932 0.3297,2.281552 -1.18853,3.050376 l -8.27097,4.188369 c -1.51824,0.768824 -2.42812,0.546279 -3.13957,-0.858653 l -0.40163,-0.793107 -0.79177,-1.563554 z"
       style="font-size:25.4px;line-height:1;font-family:Horizon;-inkscape-font-specification:Horizon;letter-spacing:-0.640292px;word-spacing:0px;fill:#ff00ff;stroke-width:10;stroke-linecap:round;stroke-dashoffset:1.134;paint-order:markers fill stroke"
       id="path1-6" />
    <path
       d="m 252.76804,-52.928553 -2.81947,1.422136 v 6.954097 h -1.75235 -0.88935 c -1.15741,0.0223 -2.18436,0.736821 -2.18436,2.438611 v 9.270752 c 0,1.7018 0.60956,2.41329 2.18436,2.41329 h 0.88935 4.57182 z m -4.82606,11.170377 h 2.00659 v 8.635649 h -2.00659 z"
       style="font-weight:bold;font-size:25.4px;line-height:1;font-family:Horizon;-inkscape-font-specification:'Horizon Bold';letter-spacing:-0.640292px;word-spacing:0px;stroke-width:10;stroke-linecap:round;stroke-dashoffset:1.134;paint-order:markers fill stroke"
       id="path1-40" />
  </g>
</svg>
