<?xml version="1.0" encoding="UTF-8" standalone="no"?>
<!-- Created with Inkscape (http://www.inkscape.org/) -->

<svg
   width="7.6556697mm"
   height="14.122653mm"
   viewBox="0 0 7.6556697 14.122653"
   version="1.1"
   id="svg1"
   xmlns="http://www.w3.org/2000/svg"
   xmlns:svg="http://www.w3.org/2000/svg">
  <defs
     id="defs1" />
  <g
     id="layer1"
     transform="translate(-299.45044,49.976796)">
    <path
       d="m 301.81259,-49.976794 c -1.4732,0 -2.36213,0.889211 -2.36213,2.438611 v 9.270752 c 0,1.5494 0.88893,2.413289 2.36213,2.413289 h 2.92127 c 1.4732,0 2.36213,-0.863889 2.36213,-2.413289 v -3.121257 l -2.76883,1.394747 v 1.4981 h -2.10788 v -3.428731 c 1.88374,-0.0225 3.66793,-1.13903 4.45503,-1.70739 0.26405,-0.19067 0.41179,-0.289439 0.42168,-0.844909 0.0228,-1.28012 0,-3.061312 0,-3.061312 0,-1.5494 -0.88893,-2.438611 -2.36213,-2.438611 z m 0.40669,2.591056 h 2.34043 v 2.260327 c -0.38192,0.60417 -1.16201,0.942789 -2.34043,1.015959 z"
       style="font-size:25.4px;line-height:1;font-family:Horizon;-inkscape-font-specification:Horizon;letter-spacing:-0.640292px;word-spacing:0px;fill:#000000;stroke-width:10;stroke-linecap:round;stroke-dashoffset:1.134;paint-order:markers fill stroke"
       id="path1-19" />
  </g>
</svg>
