<?xml version="1.0" encoding="UTF-8" standalone="no"?>
<!-- Created with Inkscape (http://www.inkscape.org/) -->

<svg
   width="6.8942175mm"
   height="16.364408mm"
   viewBox="0 0 6.8942175 16.364408"
   version="1.1"
   id="svg1"
   xmlns="http://www.w3.org/2000/svg"
   xmlns:svg="http://www.w3.org/2000/svg">
  <defs
     id="defs1" />
  <g
     id="layer1"
     transform="translate(-363.95868,77.353967)">
    <path
       id="path1-38"
       style="font-weight:bold;font-size:25.4px;line-height:1;font-family:Horizon;-inkscape-font-specification:'Horizon Bold';letter-spacing:-0.640292px;word-spacing:0px;opacity:1;fill:#000000;stroke-width:10;stroke-linecap:round;stroke-dashoffset:1.134;paint-order:markers fill stroke"
       d="m 357.50489,-80.694299 -2.81998,1.422135 -0.005,18.282605 h 2.81947 v -6.725688 l 2.02106,6.725688 h 2.92902 l -2.78587,-9.445935 3.35587,-4.876705 h -3.49902 l -2.02106,2.859774 z m 19.97966,0.01395 -2.81946,1.625741 v 3.942912 h -1.52394 v 3.176033 h 1.52394 v 8.330758 c 0,1.5494 0.88893,2.615344 2.36213,2.615344 h 2.50527 v -2.692859 h -2.04794 v -8.253243 h 1.52394 v -3.176033 h -1.52394 z" />
    <path
       d="m 366.28286,-77.289413 c -1.47259,0.04241 -2.33407,0.875692 -2.32408,2.42506 l 0.0895,13.874794 2.81944,-0.01508 -0.0475,-6.815297 2.98973,-1.588337 -0.0152,-2.882458 -2.98991,1.551729 -0.0231,-3.4379 h 1.25209 l 0.007,1.398544 2.81208,-1.398544 -0.004,-0.775321 c -0.008,-1.54938 -0.90221,-2.442712 -2.37481,-2.4003 z"
       style="font-size:25.4px;line-height:1;font-family:Horizon;-inkscape-font-specification:Horizon;letter-spacing:-0.640292px;word-spacing:0px;fill:#000000;stroke-width:10;stroke-linecap:round;stroke-dashoffset:1.134;paint-order:markers fill stroke"
       id="path5" />
  </g>
</svg>
